<mxfile host="app.diagrams.net" agent="Mozilla/5.0 (Windows NT 10.0; Win64; x64) AppleWebKit/537.36 (KHTML, like Gecko) Chrome/129.0.0.0 Safari/537.36" version="24.8.0">
  <diagram name="Page-1" id="5KB8sxXNBWU3y8yh9jyR">
    <mxGraphModel dx="1434" dy="772" grid="1" gridSize="10" guides="1" tooltips="1" connect="1" arrows="1" fold="1" page="1" pageScale="1" pageWidth="850" pageHeight="1100" math="0" shadow="0">
      <root>
        <mxCell id="0" />
        <mxCell id="1" parent="0" />
        <mxCell id="nO1lzbIFeB91-CKPpqld-11" value="1.Send Events" style="edgeStyle=orthogonalEdgeStyle;rounded=0;orthogonalLoop=1;jettySize=auto;html=1;startArrow=classic;startFill=1;shape=link;" edge="1" parent="1" source="nO1lzbIFeB91-CKPpqld-1" target="nO1lzbIFeB91-CKPpqld-2">
          <mxGeometry relative="1" as="geometry" />
        </mxCell>
        <mxCell id="nO1lzbIFeB91-CKPpqld-1" value="windows 10 client&lt;div&gt;wazuh agent&lt;/div&gt;" style="fontColor=#0066CC;verticalAlign=top;verticalLabelPosition=bottom;labelPosition=center;align=center;html=1;outlineConnect=0;fillColor=#CCCCCC;strokeColor=#6881B3;gradientColor=none;gradientDirection=north;strokeWidth=2;shape=mxgraph.networks.pc;" vertex="1" parent="1">
          <mxGeometry x="325" y="430" width="100" height="70" as="geometry" />
        </mxCell>
        <mxCell id="nO1lzbIFeB91-CKPpqld-2" value="Router" style="image;aspect=fixed;html=1;points=[];align=center;fontSize=12;image=img/lib/azure2/networking/Virtual_Router.svg;" vertex="1" parent="1">
          <mxGeometry x="340" y="262" width="68" height="68" as="geometry" />
        </mxCell>
        <mxCell id="nO1lzbIFeB91-CKPpqld-13" style="edgeStyle=orthogonalEdgeStyle;rounded=0;orthogonalLoop=1;jettySize=auto;html=1;shape=link;" edge="1" parent="1" source="nO1lzbIFeB91-CKPpqld-3" target="nO1lzbIFeB91-CKPpqld-2">
          <mxGeometry relative="1" as="geometry" />
        </mxCell>
        <mxCell id="nO1lzbIFeB91-CKPpqld-14" value="2.Receive Events" style="edgeStyle=orthogonalEdgeStyle;rounded=0;orthogonalLoop=1;jettySize=auto;html=1;shape=link;" edge="1" parent="1" source="nO1lzbIFeB91-CKPpqld-3" target="nO1lzbIFeB91-CKPpqld-4">
          <mxGeometry relative="1" as="geometry" />
        </mxCell>
        <mxCell id="nO1lzbIFeB91-CKPpqld-19" value="7.Send &amp;amp; Receive Email" style="rounded=0;orthogonalLoop=1;jettySize=auto;html=1;shape=link;fillColor=#d80073;strokeColor=#A50040;" edge="1" parent="1" source="nO1lzbIFeB91-CKPpqld-3" target="nO1lzbIFeB91-CKPpqld-12">
          <mxGeometry relative="1" as="geometry" />
        </mxCell>
        <mxCell id="nO1lzbIFeB91-CKPpqld-3" value="Internet" style="image;aspect=fixed;perimeter=ellipsePerimeter;html=1;align=center;shadow=0;dashed=0;spacingTop=3;image=img/lib/active_directory/internet_cloud.svg;" vertex="1" parent="1">
          <mxGeometry x="349" y="160" width="50" height="31.5" as="geometry" />
        </mxCell>
        <mxCell id="nO1lzbIFeB91-CKPpqld-15" value="3.Send alerts" style="rounded=0;orthogonalLoop=1;jettySize=auto;html=1;shape=link;fillColor=#0050ef;strokeColor=#001DBC;" edge="1" parent="1" source="nO1lzbIFeB91-CKPpqld-4" target="nO1lzbIFeB91-CKPpqld-8">
          <mxGeometry x="0.0006" relative="1" as="geometry">
            <mxPoint x="170" y="90" as="targetPoint" />
            <mxPoint as="offset" />
          </mxGeometry>
        </mxCell>
        <mxCell id="nO1lzbIFeB91-CKPpqld-21" value="8.Send Response Action" style="edgeStyle=orthogonalEdgeStyle;rounded=0;orthogonalLoop=1;jettySize=auto;html=1;shape=link;fillColor=#fa6800;strokeColor=#C73500;" edge="1" parent="1" source="nO1lzbIFeB91-CKPpqld-4" target="nO1lzbIFeB91-CKPpqld-8">
          <mxGeometry relative="1" as="geometry">
            <mxPoint x="175" y="30" as="targetPoint" />
            <Array as="points">
              <mxPoint x="180" y="36" />
            </Array>
          </mxGeometry>
        </mxCell>
        <mxCell id="nO1lzbIFeB91-CKPpqld-22" value="&lt;span style=&quot;color: rgb(0, 0, 0); font-family: Helvetica; font-size: 11px; font-style: normal; font-variant-ligatures: normal; font-variant-caps: normal; font-weight: 400; letter-spacing: normal; orphans: 2; text-align: center; text-indent: 0px; text-transform: none; widows: 2; word-spacing: 0px; -webkit-text-stroke-width: 0px; white-space: nowrap; background-color: rgb(255, 255, 255); text-decoration-thickness: initial; text-decoration-style: initial; text-decoration-color: initial; display: inline !important; float: none;&quot;&gt;8.Send Response Action&lt;/span&gt;" style="edgeStyle=orthogonalEdgeStyle;rounded=0;orthogonalLoop=1;jettySize=auto;html=1;shape=link;fillColor=#fa6800;strokeColor=#C73500;" edge="1" parent="1" source="nO1lzbIFeB91-CKPpqld-4" target="nO1lzbIFeB91-CKPpqld-1">
          <mxGeometry relative="1" as="geometry">
            <Array as="points">
              <mxPoint x="180" y="465" />
            </Array>
          </mxGeometry>
        </mxCell>
        <mxCell id="nO1lzbIFeB91-CKPpqld-4" value="Wazuh Manager" style="image;aspect=fixed;perimeter=ellipsePerimeter;html=1;align=center;shadow=0;dashed=0;spacingTop=3;image=img/lib/active_directory/internet_cloud.svg;" vertex="1" parent="1">
          <mxGeometry x="150" y="160" width="50" height="31.5" as="geometry" />
        </mxCell>
        <mxCell id="nO1lzbIFeB91-CKPpqld-7" value="TheHive" style="image;aspect=fixed;perimeter=ellipsePerimeter;html=1;align=center;shadow=0;dashed=0;spacingTop=3;image=img/lib/active_directory/internet_cloud.svg;" vertex="1" parent="1">
          <mxGeometry x="580" y="150" width="50" height="31.5" as="geometry" />
        </mxCell>
        <mxCell id="nO1lzbIFeB91-CKPpqld-16" value="4.Enrich IOCS" style="edgeStyle=orthogonalEdgeStyle;rounded=0;orthogonalLoop=1;jettySize=auto;html=1;shape=link;fillColor=#008a00;strokeColor=#005700;" edge="1" parent="1" source="nO1lzbIFeB91-CKPpqld-8" target="nO1lzbIFeB91-CKPpqld-3">
          <mxGeometry relative="1" as="geometry" />
        </mxCell>
        <mxCell id="nO1lzbIFeB91-CKPpqld-17" value="5.Send Alerts" style="rounded=0;orthogonalLoop=1;jettySize=auto;html=1;fillColor=#0050ef;strokeColor=#001DBC;shape=link;" edge="1" parent="1" source="nO1lzbIFeB91-CKPpqld-8" target="nO1lzbIFeB91-CKPpqld-7">
          <mxGeometry relative="1" as="geometry" />
        </mxCell>
        <mxCell id="nO1lzbIFeB91-CKPpqld-18" value="6.Send Email" style="rounded=0;orthogonalLoop=1;jettySize=auto;html=1;fillColor=#d80073;strokeColor=#A50040;shape=link;" edge="1" parent="1" source="nO1lzbIFeB91-CKPpqld-8" target="nO1lzbIFeB91-CKPpqld-3">
          <mxGeometry relative="1" as="geometry">
            <Array as="points">
              <mxPoint x="500" y="176" />
            </Array>
          </mxGeometry>
        </mxCell>
        <mxCell id="nO1lzbIFeB91-CKPpqld-8" value="Shuffle" style="image;aspect=fixed;perimeter=ellipsePerimeter;html=1;align=center;shadow=0;dashed=0;spacingTop=3;image=img/lib/active_directory/internet_cloud.svg;" vertex="1" parent="1">
          <mxGeometry x="349" y="20" width="50" height="31.5" as="geometry" />
        </mxCell>
        <mxCell id="nO1lzbIFeB91-CKPpqld-20" value="8. Send Response Action" style="rounded=0;orthogonalLoop=1;jettySize=auto;html=1;entryX=0.5;entryY=1;entryDx=0;entryDy=0;shape=link;fillColor=#fa6800;strokeColor=#C73500;" edge="1" parent="1" source="nO1lzbIFeB91-CKPpqld-12" target="nO1lzbIFeB91-CKPpqld-3">
          <mxGeometry relative="1" as="geometry">
            <Array as="points">
              <mxPoint x="470" y="320" />
            </Array>
          </mxGeometry>
        </mxCell>
        <mxCell id="nO1lzbIFeB91-CKPpqld-12" value="SOC Analyst" style="fontColor=#0066CC;verticalAlign=top;verticalLabelPosition=bottom;labelPosition=center;align=center;html=1;outlineConnect=0;fillColor=#CCCCCC;strokeColor=#6881B3;gradientColor=none;gradientDirection=north;strokeWidth=2;shape=mxgraph.networks.pc;" vertex="1" parent="1">
          <mxGeometry x="660" y="290" width="100" height="70" as="geometry" />
        </mxCell>
      </root>
    </mxGraphModel>
  </diagram>
</mxfile>
